<svg width="647" height="859" viewBox="0 0 647 859" fill="none" xmlns="http://www.w3.org/2000/svg">
<path d="M646.07 1.76074C646.076 1.81841 648.189 24.5801 645.206 54.6182C642.223 84.6505 634.133 122.086 613.636 151.359C606.611 161.391 598.451 171.67 589.625 181.725L573.39 259.021L573.322 259.342L573.078 259.561L504.896 320.655L502.624 322.692L503.251 319.704L519.362 243.003L492.365 262.121L491.791 262.528L452.547 235.049L452.732 234.37L461.125 203.698L395.676 244.379L393.082 245.991L394.22 243.158L428.311 158.192L428.433 157.889L428.71 157.716L494.167 117.029C500.838 104.73 508.005 93.0033 515.338 82.5303C535.836 53.2564 568.246 32.8509 595.447 19.7764C622.667 6.6928 644.787 0.894599 644.821 0.885742L645.961 0.586914L646.07 1.76074ZM594.313 74.3486C579.61 64.0534 559.345 67.6269 549.05 82.3301C538.755 97.0332 542.327 117.298 557.03 127.594C571.733 137.889 591.999 134.315 602.294 119.612C612.589 104.909 609.016 84.644 594.313 74.3486Z" fill="#4b4b5eff"/>
<path d="M433.162 300.664L180.441 708.187L139.295 679.176L433.162 300.664Z" fill="#4b4b5eff"/>
<path d="M439.623 269.171L133.381 637.128L108.22 614.315L439.623 269.171Z" fill="#4b4b5eff"/>
<path d="M462.12 284.924L253.377 716.553L223.483 700.548L462.12 284.924Z" fill="#4b4b5eff"/>
</svg>
