<svg width="366" height="366" viewBox="0 0 366 366" fill="none" xmlns="http://www.w3.org/2000/svg">
<path d="M61.5648 62.5825C61.5648 62.5825 152.45 70.0294 202.633 120.212C211.32 128.899 220.061 138.764 228.461 149.255L302.005 178.763L350.332 256.518L275.227 226.383L290.457 258.594L257.576 291.475L226.524 276.793L256.17 350.68L178.416 302.352L149.618 230.581C138.611 221.846 128.262 212.718 119.194 203.65C69.0116 153.468 61.5648 62.5825 61.5648 62.5825Z" fill="black"/>
<path d="M61.5648 62.5825L61.6465 61.5859L58.9315 61.3634L60.8577 63.2896L61.5648 62.5825ZM228.461 149.255L227.68 149.88L227.844 150.085L228.088 150.183L228.461 149.255ZM302.005 178.763L302.855 178.235L302.682 177.957L302.378 177.835L302.005 178.763ZM350.332 256.518L349.96 257.446L352.793 258.582L351.182 255.99L350.332 256.518ZM275.227 226.383L275.599 225.455L273.233 224.505L274.323 226.81L275.227 226.383ZM290.457 258.594L291.164 259.301L291.662 258.803L291.361 258.167L290.457 258.594ZM257.576 291.475L257.149 292.379L257.786 292.68L258.283 292.182L257.576 291.475ZM226.524 276.793L226.951 275.889L224.646 274.799L225.596 277.165L226.524 276.793ZM256.17 350.68L255.643 351.529L258.235 353.14L257.098 350.307L256.17 350.68ZM178.416 302.352L177.488 302.725L177.609 303.029L177.888 303.202L178.416 302.352ZM149.618 230.581L150.546 230.209L150.447 229.963L150.239 229.798L149.618 230.581ZM61.5648 62.5825C61.4832 63.5792 61.4833 63.5792 61.4837 63.5792C61.4843 63.5793 61.4851 63.5793 61.4863 63.5794C61.4888 63.5796 61.4926 63.58 61.4978 63.5804C61.5081 63.5813 61.524 63.5826 61.5453 63.5844C61.5878 63.5881 61.652 63.5937 61.7374 63.6014C61.9082 63.6168 62.1636 63.6405 62.4997 63.6736C63.1719 63.7398 64.1667 63.8437 65.4521 63.9938C68.0228 64.294 71.7552 64.779 76.3924 65.5177C85.668 66.9953 98.5581 69.4869 113.01 73.5416C141.94 81.6581 177.013 96.0062 201.926 120.919L202.633 120.212L203.34 119.505C178.07 94.2348 142.609 79.7684 113.55 71.6159C99.0084 67.536 86.0407 65.0295 76.7071 63.5426C72.0397 62.7991 68.2796 62.3103 65.684 62.0073C64.3862 61.8557 63.3794 61.7506 62.6958 61.6832C62.354 61.6495 62.093 61.6253 61.9167 61.6094C61.8286 61.6015 61.7617 61.5957 61.7165 61.5918C61.6939 61.5898 61.6767 61.5884 61.665 61.5874C61.6592 61.5869 61.6547 61.5865 61.6516 61.5863C61.6501 61.5862 61.6488 61.5861 61.648 61.586C61.6471 61.5859 61.6465 61.5859 61.5648 62.5825ZM202.633 120.212L201.926 120.919C210.583 129.577 219.3 139.414 227.68 149.88L228.461 149.255L229.241 148.63C220.822 138.114 212.057 128.221 203.34 119.505L202.633 120.212ZM228.461 149.255L228.088 150.183L301.633 179.691L302.005 178.763L302.378 177.835L228.833 148.327L228.461 149.255ZM302.005 178.763L301.156 179.291L349.483 257.045L350.332 256.518L351.182 255.99L302.855 178.235L302.005 178.763ZM350.332 256.518L350.705 255.59L275.599 225.455L275.227 226.383L274.855 227.311L349.96 257.446L350.332 256.518ZM275.227 226.383L274.323 226.81L289.553 259.021L290.457 258.594L291.361 258.167L276.131 225.955L275.227 226.383ZM290.457 258.594L289.75 257.887L256.869 290.767L257.576 291.475L258.283 292.182L291.164 259.301L290.457 258.594ZM257.576 291.475L258.004 290.57L226.951 275.889L226.524 276.793L226.096 277.697L257.149 292.379L257.576 291.475ZM226.524 276.793L225.596 277.165L255.242 351.052L256.17 350.68L257.098 350.307L227.452 276.421L226.524 276.793ZM256.17 350.68L256.698 349.83L178.943 301.503L178.416 302.352L177.888 303.202L255.643 351.529L256.17 350.68ZM178.416 302.352L179.344 301.98L150.546 230.209L149.618 230.581L148.689 230.954L177.488 302.725L178.416 302.352ZM149.618 230.581L150.239 229.798C139.258 221.083 128.938 211.98 119.901 202.943L119.194 203.65L118.487 204.357C127.585 213.456 137.964 222.609 148.996 231.364L149.618 230.581ZM119.194 203.65L119.901 202.943C94.9885 178.031 80.6404 142.958 72.5239 114.028C68.4692 99.5758 65.9776 86.6857 64.5 77.4102C63.7613 72.7729 63.2763 69.0405 62.9761 66.4698C62.826 65.1844 62.7221 64.1896 62.6559 63.5174C62.6228 63.1813 62.5991 62.9259 62.5837 62.7551C62.576 62.6697 62.5704 62.6055 62.5667 62.563C62.5649 62.5417 62.5636 62.5258 62.5627 62.5155C62.5623 62.5103 62.5619 62.5065 62.5617 62.504C62.5616 62.5028 62.5616 62.502 62.5615 62.5014C62.5615 62.501 62.4723 62.1624 62.2719 61.8754L61.5648 62.5825L60.8577 63.2896C60.6573 63.0026 60.5682 62.6648 60.5683 62.6657C60.5683 62.6665 60.5685 62.6678 60.5686 62.6693C60.5688 62.6724 60.5692 62.6769 60.5697 62.6827C60.5707 62.6944 60.5721 62.7116 60.5741 62.7342C60.578 62.7794 60.5838 62.8463 60.5917 62.9344C60.6076 63.1107 60.6318 63.3717 60.6655 63.7135C60.7329 64.3971 60.838 65.4039 60.9896 66.7017C61.2926 69.2973 61.7814 73.0574 62.5249 77.7248C64.0118 87.0584 66.5183 100.026 70.5982 114.568C78.7507 143.626 93.2171 179.088 118.487 204.357L119.194 203.65Z" fill="#00FFD9"/>
<circle cx="147.125" cy="148.142" r="31.5" transform="rotate(-45 147.125 148.142)" fill="#00FFD9" stroke="#00FFD9" stroke-width="2"/>
<mask id="path-4-inside-1_31_33" fill="white">
<path d="M186.723 191.276L190.258 187.74L304.81 302.292L301.274 305.827L186.723 191.276Z"/>
</mask>
<path d="M186.723 191.276L190.258 187.74L304.81 302.292L301.274 305.827L186.723 191.276Z" fill="black"/>
<path d="M190.258 187.74L188.844 189.155L303.395 303.706L304.81 302.292L306.224 300.877L191.672 186.326L190.258 187.74Z" fill="#00FFD9" mask="url(#path-4-inside-1_31_33)"/>
</svg>
