<svg width="250" height="250" viewBox="0 0 250 250" fill="none" xmlns="http://www.w3.org/2000/svg">
<ellipse cx="125.691" cy="125" rx="55.2486" ry="55.5556" fill="#00FFD9"/>
<path d="M125.69 64C159.181 64 186.345 91.3028 186.345 125C186.345 158.697 159.181 186 125.69 186C92.1995 186 65.0359 158.697 65.0359 125C65.0359 91.3029 92.1995 64.0002 125.69 64Z" stroke="#00FFD9" stroke-width="3"/>
<path d="M125 53.7778C164.491 53.7778 196.513 85.9711 196.513 125.695C196.513 165.418 164.49 197.611 125 197.611C85.5092 197.611 53.4863 165.418 53.4861 125.695C53.4861 85.9711 85.5091 53.7778 125 53.7778Z" stroke="#00FFD9" stroke-width="2"/>
<path d="M125.691 35.2222C174.995 35.2224 214.969 75.4144 214.969 125C214.969 174.585 174.996 214.778 125.691 214.778C76.386 214.778 36.4116 174.585 36.4116 125C36.4118 75.4143 76.3862 35.2222 125.691 35.2222Z" stroke="#00FFD9"/>
<circle cx="125" cy="125" r="124.5" stroke="#007E6B"/>
</svg>
